<svg width="59" height="36" viewBox="0 0 59 36" fill="none" xmlns="http://www.w3.org/2000/svg">
<path d="M12.4219 34.7344H17.3672V0.234375H14.4844L0 4.875V9.60938L12.4219 5.29688V34.7344Z" fill="white"/>
<path d="M28.3622 17.6484C28.3622 23.2734 29.6825 27.625 32.3231 30.7031C34.9794 33.7812 38.7137 35.3281 43.5262 35.3438C48.37 35.3438 52.1122 33.8203 54.7528 30.7734C57.4091 27.7266 58.7372 23.3594 58.7372 17.6719V17.4141C58.7372 11.8672 57.4091 7.57812 54.7528 4.54688C52.1122 1.51562 48.37 0 43.5262 0C38.7606 0 35.0419 1.53125 32.37 4.59375C29.6981 7.64062 28.3622 11.9141 28.3622 17.4141V17.6484ZM33.5419 17.8828V17.1797C33.5419 13.1641 34.3778 10.0625 36.0497 7.875C37.7216 5.67188 40.2294 4.57031 43.5731 4.57031C46.9169 4.57031 49.4247 5.67188 51.0966 7.875C52.7841 10.0625 53.6278 13.1641 53.6278 17.1797V17.9062C53.6278 22.0781 52.7919 25.2734 51.12 27.4922C49.4481 29.7109 46.9325 30.8203 43.5731 30.8203C40.1981 30.8203 37.6825 29.7109 36.0262 27.4922C34.37 25.2734 33.5419 22.0703 33.5419 17.8828Z" fill="white"/>
</svg>
