<svg width="95" height="36" viewBox="0 0 95 36" fill="none" xmlns="http://www.w3.org/2000/svg">
<path d="M0 25.5703C0 28.4766 1.39062 30.8281 4.17188 32.625C6.96875 34.4219 10.4844 35.3203 14.7188 35.3203C19.3438 35.3203 22.9609 34.3047 25.5703 32.2734C28.1797 30.2266 29.4922 27.3672 29.5078 23.6953C29.5078 20.0078 28.2891 17.2344 25.8516 15.375C23.4141 13.5 20.2188 12.5625 16.2656 12.5625C13.7969 12.5625 11.7578 12.8906 10.1484 13.5469C8.53906 14.2031 7.3125 14.9453 6.46875 15.7734L7.73438 5.29688H27.2578V0.609375H3.75L1.71094 18.2344L6.23438 20.4844C7.1875 19.5781 8.32031 18.75 9.63281 18C10.9453 17.25 12.7422 16.875 15.0234 16.875C18.0547 16.875 20.3984 17.4219 22.0547 18.5156C23.7109 19.5938 24.5391 21.3359 24.5391 23.7422C24.5391 26.1016 23.7266 27.8984 22.1016 29.1328C20.4766 30.3672 18.0234 30.9844 14.7422 30.9844C11.4922 30.9844 9.04688 30.5234 7.40625 29.6016C5.76562 28.6797 4.94531 27.3359 4.94531 25.5703V25.1953H0V25.5703Z" fill="white"/>
<path d="M32.6953 17.6484C32.6953 23.2734 34.0156 27.625 36.6562 30.7031C39.3125 33.7812 43.0469 35.3281 47.8594 35.3438C52.7031 35.3438 56.4453 33.8203 59.0859 30.7734C61.7422 27.7266 63.0703 23.3594 63.0703 17.6719V17.4141C63.0703 11.8672 61.7422 7.57812 59.0859 4.54688C56.4453 1.51562 52.7031 0 47.8594 0C43.0938 0 39.375 1.53125 36.7031 4.59375C34.0312 7.64062 32.6953 11.9141 32.6953 17.4141V17.6484ZM37.875 17.8828V17.1797C37.875 13.1641 38.7109 10.0625 40.3828 7.875C42.0547 5.67188 44.5625 4.57031 47.9062 4.57031C51.25 4.57031 53.7578 5.67188 55.4297 7.875C57.1172 10.0625 57.9609 13.1641 57.9609 17.1797V17.9062C57.9609 22.0781 57.125 25.2734 55.4531 27.4922C53.7812 29.7109 51.2656 30.8203 47.9062 30.8203C44.5312 30.8203 42.0156 29.7109 40.3594 27.4922C38.7031 25.2734 37.875 22.0703 37.875 17.8828Z" fill="white"/>
<path d="M66.1406 21.1641H94.5469V16.5703H66.1406V21.1641ZM78.0234 31.0312H82.6406V6.67969H78.0234V31.0312Z" fill="white"/>
</svg>
