<svg width="24" height="24" viewBox="0 0 24 24" fill="none" xmlns="http://www.w3.org/2000/svg">
<path d="M12 22C17.5228 22 22 17.5228 22 12C22 6.47715 17.5228 2 12 2C6.47715 2 2 6.47715 2 12C2 17.5228 6.47715 22 12 22Z" stroke="#212121" stroke-width="2" stroke-linecap="round" stroke-linejoin="round"/>
<path d="M10.5 13.9635C10.5 14.4608 10.5 14.7094 10.6033 14.844C10.6933 14.9613 10.8305 15.0327 10.9781 15.0392C11.1477 15.0466 11.3514 14.904 11.7588 14.6189L14.5637 12.6554C14.8787 12.4349 15.0362 12.3247 15.0917 12.1873C15.1402 12.0672 15.1402 11.9328 15.0917 11.8127C15.0362 11.6753 14.8787 11.5651 14.5637 11.3446L11.7588 9.38114C11.3514 9.09597 11.1477 8.95339 10.9781 8.96081C10.8305 8.96727 10.6933 9.03871 10.6033 9.15596C10.5 9.29061 10.5 9.53925 10.5 10.0365V13.9635Z" fill="#212121" stroke="#212121" stroke-linecap="round" stroke-linejoin="round"/>
</svg>
