<svg width="36" height="36" viewBox="0 0 36 36" fill="none" xmlns="http://www.w3.org/2000/svg">
<path fill-rule="evenodd" clip-rule="evenodd" d="M18.0213 25.1311L18.0708 28.1654C17.6179 28.1656 17.1828 27.9895 16.8577 27.6742L16.6207 27.3921L10.8645 20.5472L8.90662 18.2168C8.90147 18.2141 8.89735 18.2097 8.89486 18.2045L8.86393 18.1686L8.85775 18.1605C8.81946 18.11 8.78882 18.0542 8.76681 17.9948C8.73753 17.9219 8.7214 17.8444 8.71918 17.7659V17.7189C8.71918 17.704 8.72041 17.6885 8.72351 17.6737C8.73704 17.5213 8.80155 17.3779 8.90662 17.2666C9.0322 17.1306 9.21469 17.0439 9.41512 17.0439H11.3483L18.0207 25.1323L18.0219 25.1311H18.0213Z" fill="#FCD1CA"/>
<path fill-rule="evenodd" clip-rule="evenodd" d="M18.0202 21.4925V25.253L8.89314 14.3617C8.83832 14.3003 8.79514 14.2294 8.7657 14.1526C8.7368 14.079 8.72089 14.0009 8.71869 13.9218V13.8754C8.72364 13.701 8.79354 13.5445 8.90613 13.4251C9.03109 13.2871 9.21358 13.2024 9.41463 13.2024H11.1455L18.0202 21.4918V21.4925Z" fill="#FF9D8D"/>
<path fill-rule="evenodd" clip-rule="evenodd" d="M9.4114 9.56313C9.21221 9.56313 9.0291 9.64726 8.90537 9.7846C8.79402 9.90152 8.72474 10.0599 8.71979 10.2325V10.2783C8.72164 10.3605 8.73773 10.4372 8.7668 10.5071C8.76742 10.5139 8.77051 10.5195 8.77299 10.5257C8.8032 10.5984 8.84638 10.6651 8.90042 10.7224L8.91032 10.7336L18.0207 21.4925V28.1655C18.4709 28.1665 18.9038 27.9916 19.227 27.678C19.2288 27.678 19.2288 27.678 19.2288 27.6768L27.1471 18.2763C27.157 18.2664 27.1657 18.2553 27.1743 18.2442C27.2164 18.1922 27.2498 18.1334 27.2745 18.0691C27.3055 17.9924 27.3215 17.9083 27.3215 17.8186V10.2541C27.3223 10.0788 27.2554 9.90993 27.1347 9.78274C27.0703 9.71277 26.9919 9.65704 26.9047 9.61911C26.8174 9.58119 26.7232 9.56191 26.6281 9.56251H9.41202L9.4114 9.56313Z" fill="#FF6661"/>
</svg>
