<svg width="36" height="36" viewBox="0 0 36 36" fill="none" xmlns="http://www.w3.org/2000/svg">
<circle cx="18" cy="18" r="12" fill="#FFC515"/>
<path d="M17.9354 6.00049C16.3994 6.00859 14.9318 6.30525 13.5839 6.83902C13.1064 7.28783 12.607 7.78175 12.1875 8.25032C11.351 9.18465 10.8131 10.4865 10.3118 11.6997C9.64228 13.32 9.03808 14.7823 7.875 15.0003C7.83923 15.007 7.80466 15.0138 7.77109 15.0203C7.46688 15.0794 7.24364 15.1228 6.9375 15.0003C6.75153 14.9259 6.60916 14.7568 6.50112 14.5577C6.17512 15.6482 6 16.8038 6 18.0003C6 18.7028 6.06035 19.3911 6.17615 20.0604C7.40571 20.4449 9.13432 20.7962 10.3125 20.2503C12.5715 19.2038 13.3125 14.6253 13.3125 14.6253C13.3125 14.6253 13.61 11.229 14.625 9.37532C15.3182 8.10934 16.7098 6.89866 17.9354 6.00049Z" fill="#FF49E8"/>
<path d="M20.9368 6.36197C19.997 6.12556 19.0132 6 18 6C17.7076 6 17.4176 6.01046 17.1304 6.03103C16.5669 6.31403 15.8517 6.71336 15.375 7.125C13.7935 8.49066 13.3915 9.77027 12.7578 11.7879L12.75 11.8125C12.1118 13.8443 10.7751 17.7857 8.4375 18.5625C7.61753 18.835 6.68791 18.1408 6.01223 17.4534C6.00411 17.6346 6 17.8168 6 18C6 20.4939 6.76076 22.8101 8.06287 24.7292C8.96446 24.9314 10.03 25.0809 10.875 24.9375C12.8808 24.5971 15.375 22.3125 15.375 22.3125C15.375 22.3125 14.7232 15.5341 16.5 11.8125C17.4723 9.77612 19.722 7.50242 20.9368 6.36197Z" fill="#38FEC9"/>
<path d="M26.9227 9.9755C25.1904 8.0505 22.8441 6.68903 20.1923 6.19946C19.4799 6.33424 18.7182 6.55979 18.1874 6.93716C16.0728 8.44072 14.4374 12.3747 14.0624 16.1247C13.7132 19.6166 12.9374 22.8747 10.3124 23.4372C9.03651 23.7106 7.68096 22.7181 6.56161 21.6388C8.10275 26.4871 12.6411 29.9997 17.9999 29.9997C18.399 29.9997 18.7934 29.9802 19.1825 29.9422L21.7499 27.3747L23.0624 20.6247L22.6874 14.4372L25.4999 10.4997L26.9227 9.9755Z" fill="#4281FF"/>
<path d="M18 29.9999C24.6274 29.9999 30 24.6273 30 17.9999C30 14.6697 28.6434 11.6563 26.4528 9.48226C24.6704 9.00564 23.4347 10.2308 22.3204 12.3749C21.0233 14.8709 21.2543 17.5394 21.4734 20.0701C21.6284 21.8607 21.7775 23.5823 21.375 25.1249C20.8955 26.9623 19.1143 28.8443 17.8438 29.9989C17.8958 29.9996 17.9479 29.9999 18 29.9999Z" fill="#FF37F1"/>
</svg>
