<svg width="36" height="36" viewBox="0 0 36 36" fill="none" xmlns="http://www.w3.org/2000/svg">
<g clip-path="url(#clip0_7756_53557)">
<path d="M14.6265 28.1248C16.4895 28.1248 18.0015 26.6128 18.0015 24.7498V21.3748H14.6265C12.7635 21.3748 11.2515 22.8868 11.2515 24.7498C11.2515 26.6128 12.7635 28.1248 14.6265 28.1248Z" fill="#0ACF83"/>
<path d="M11.2515 17.9998C11.2515 16.1368 12.7635 14.6248 14.6265 14.6248H18.0015V21.3748H14.6265C12.7635 21.3748 11.2515 19.8628 11.2515 17.9998Z" fill="#A259FF"/>
<path d="M11.2517 11.2498C11.2517 9.38676 12.7637 7.87476 14.6267 7.87476H18.0017V14.6248H14.6267C12.7637 14.6248 11.2517 13.1128 11.2517 11.2498Z" fill="#F24E1E"/>
<path d="M18.0013 7.87476H21.3763C23.2393 7.87476 24.7513 9.38676 24.7513 11.2498C24.7513 13.1128 23.2393 14.6248 21.3763 14.6248H18.0013V7.87476Z" fill="#FF7262"/>
<path d="M24.7513 17.9998C24.7513 19.8628 23.2393 21.3748 21.3763 21.3748C19.5133 21.3748 18.0013 19.8628 18.0013 17.9998C18.0013 16.1368 19.5133 14.6248 21.3763 14.6248C23.2393 14.6248 24.7513 16.1368 24.7513 17.9998Z" fill="#1ABCFE"/>
</g>
<defs>
<clipPath id="clip0_7756_53557">
<rect width="13.5027" height="20.25" fill="white" transform="translate(11.25 7.87476)"/>
</clipPath>
</defs>
</svg>
