<svg width="337" height="126" viewBox="0 0 337 126" fill="none" xmlns="http://www.w3.org/2000/svg">
<path d="M1.77344 40.2949C2.14844 40.4238 2.57617 40.5176 3.05664 40.5762C3.53711 40.6348 4.11719 40.6641 4.79688 40.6641C6.57812 40.6641 8.03711 40.2188 9.17383 39.3281C10.3223 38.4492 11.2832 37.1016 12.0566 35.2852L21.4258 15.7031H17.4004L11.9688 26.6895C11.7461 27.1348 11.5762 27.6152 11.459 28.1309C11.3418 28.6348 11.2656 29.1973 11.2305 29.8184H11.1777C11.1074 29.1973 11.0137 28.6348 10.8965 28.1309C10.791 27.6152 10.627 27.1406 10.4043 26.707L4.99023 15.7031H0.490234L9.05078 32.7891L9.47266 32.8594C8.75781 34.6992 7.98438 35.8828 7.15234 36.4102C6.32031 36.9492 5.41797 37.2129 4.44531 37.2012C3.90625 37.2012 3.41406 37.1719 2.96875 37.1133C2.52344 37.0664 2.125 36.9902 1.77344 36.8848V40.2949ZM36.9297 33V15.7031H32.6582V33H36.9297ZM44.3301 33H49.8672L38.5469 23.0859L35.6641 25.4062L44.3301 33ZM34.9082 22.4883V26.0742H37.6328L49.0234 15.7031H44.1367L36.6133 22.4883H34.9082ZM25.2754 33L33.9941 25.4062L31.0586 23.0859L19.7559 33H25.2754ZM34.9082 22.4883H32.9922L25.4688 15.7031H20.582L31.9199 26.0742H34.9082V22.4883ZM49.8496 24.6152C49.8496 27.2637 50.793 29.4023 52.6797 31.0312C54.5781 32.6484 57.1152 33.457 60.291 33.457C62.3535 33.457 64.1641 33.1465 65.7227 32.5254C67.2812 31.8926 68.3945 31.002 69.0625 29.8535L66.2148 27.7266C65.6406 28.3594 64.8379 28.9102 63.8066 29.3789C62.7871 29.8359 61.6445 30.0645 60.3789 30.0645C58.3867 30.0645 56.7578 29.5605 55.4922 28.5527C54.2383 27.5449 53.6113 26.2383 53.6113 24.6328V23.9824C53.6113 22.4121 54.168 21.1113 55.2812 20.0801C56.3945 19.0488 57.8652 18.5332 59.6934 18.5332C61.8848 18.5332 63.3789 18.9199 64.1758 19.6934C64.9844 20.4668 65.3945 21.4805 65.4062 22.7344L65.3887 22.4707H52.1348V25.4414H69.3438V23.7891C69.3672 21.1172 68.5117 19.0254 66.7773 17.5137C65.0547 16.002 62.752 15.2461 59.8691 15.2461C56.998 15.2461 54.6074 16.0605 52.6973 17.6895C50.7988 19.3066 49.8496 21.4277 49.8496 24.0527V24.6152ZM88.2578 33.4395C91.1641 33.4395 93.3672 32.959 94.8672 31.998C96.3672 31.0371 97.1172 29.877 97.1172 28.5176C97.1172 27.1582 96.5957 26.1328 95.5527 25.4414C94.5215 24.75 93.25 24.2988 91.7383 24.0879V24.0352C93.1797 23.7891 94.3105 23.3086 95.1309 22.5938C95.9512 21.8672 96.3613 20.9355 96.3613 19.7988C96.3613 18.4395 95.6523 17.3438 94.2344 16.5117C92.8164 15.668 90.8125 15.2461 88.2227 15.2461C85.1406 15.2461 82.832 15.7734 81.2969 16.8281C79.7734 17.8711 79.0117 19.2832 79.0117 21.0645V21.416H82.9492V21.0645C82.9375 20.1387 83.3594 19.4766 84.2148 19.0781C85.082 18.6797 86.4297 18.4805 88.2578 18.4805C89.5469 18.4805 90.5547 18.6562 91.2812 19.0078C92.0078 19.3477 92.3711 19.8574 92.3711 20.5371C92.3711 21.1934 92.002 21.709 91.2637 22.084C90.5371 22.459 89.5234 22.6465 88.2227 22.6465H84.8477V25.7402H88.5742C89.9453 25.7402 91.0293 25.9043 91.8262 26.2324C92.6348 26.5605 93.0391 27.1406 93.0391 27.9727C93.0391 28.7227 92.6289 29.2852 91.8086 29.6602C90.9883 30.0352 89.7402 30.2227 88.0645 30.2227C86.166 30.2227 84.7715 30.0586 83.8809 29.7305C82.9902 29.4023 82.5449 28.6641 82.5449 27.5156V27.1641H78.5547V27.5156C78.5547 29.8125 79.3633 31.377 80.9805 32.209C82.5977 33.041 85.0234 33.4512 88.2578 33.4395ZM99.5605 27.9902C99.5605 29.7129 100.299 31.0312 101.775 31.9453C103.264 32.8477 105.01 33.2988 107.014 33.2988C108.771 33.2988 110.359 33.0293 111.777 32.4902C113.207 31.9395 114.133 31.3184 114.555 30.627C114.613 31.0371 114.707 31.4707 114.836 31.9277C114.977 32.3848 115.135 32.7422 115.311 33H119.23V32.7188C118.914 32.2734 118.662 31.7051 118.475 31.0137C118.287 30.3105 118.193 29.584 118.193 28.834V21.0469C118.193 19.043 117.426 17.5781 115.891 16.6523C114.367 15.7148 112.322 15.2461 109.756 15.2461C107.154 15.2461 104.986 15.7324 103.252 16.7051C101.529 17.666 100.668 18.9141 100.668 20.4492V21.1348H104.676V20.5547C104.676 19.8633 105.104 19.3418 105.959 18.9902C106.814 18.6387 107.992 18.4629 109.492 18.4629C111.086 18.4629 112.258 18.6855 113.008 19.1309C113.77 19.5762 114.15 20.2031 114.15 21.0117V22.1367H109.07C106.422 22.1367 104.172 22.6582 102.32 23.7012C100.48 24.7324 99.5605 26.1621 99.5605 27.9902ZM103.639 27.8496C103.639 26.9824 104.172 26.3086 105.238 25.8281C106.316 25.3359 107.775 25.0898 109.615 25.0898H114.15V26.8828C114.15 27.8203 113.5 28.5938 112.199 29.2031C110.898 29.8008 109.527 30.0996 108.086 30.0996C106.668 30.0996 105.572 29.9062 104.799 29.5195C104.025 29.1328 103.639 28.5762 103.639 27.8496ZM122.061 15.7031V33H126.104V26.0742H136.633V33H140.676V15.7031H136.633V22.4883H126.104V15.7031H122.061ZM144.385 33H148.621L157.674 22.418C157.979 22.0312 158.184 21.7266 158.289 21.5039C158.406 21.2695 158.576 20.9707 158.799 20.6074H158.605C158.605 21.0176 158.611 21.3633 158.623 21.6445C158.646 21.9258 158.658 22.2715 158.658 22.6816V33H162.807V15.7031H158.57L149.518 26.25C149.225 26.6484 149.02 26.9941 148.902 27.2871C148.785 27.5684 148.639 27.8965 148.463 28.2715C148.498 27.8613 148.516 27.4863 148.516 27.1465C148.527 26.7949 148.533 26.4141 148.533 26.0039V15.7031H144.385V33ZM166.516 33H169.943V22.4531C169.943 22.0195 169.943 21.6562 169.943 21.3633C169.943 21.0586 169.926 20.7246 169.891 20.3613H169.979C170.037 20.7129 170.137 21.0469 170.277 21.3633C170.418 21.6797 170.605 22.043 170.84 22.4531L176.869 33H180.139L186.168 22.4883C186.402 22.0547 186.59 21.6797 186.73 21.3633C186.871 21.0352 186.977 20.7012 187.047 20.3613H187.117C187.082 20.7129 187.064 21.0586 187.064 21.3984C187.064 21.7266 187.064 22.0957 187.064 22.5059V33H191.072V15.7031H185.781L179.734 26.0742C179.395 26.6953 179.172 27.1113 179.066 27.3223C178.961 27.5215 178.855 27.8262 178.75 28.2363H178.627C178.51 27.8262 178.41 27.5215 178.328 27.3223C178.246 27.123 178.035 26.7129 177.695 26.0918L171.771 15.7031H166.516V33ZM193.99 27.9902C193.99 29.7129 194.729 31.0312 196.205 31.9453C197.693 32.8477 199.439 33.2988 201.443 33.2988C203.201 33.2988 204.789 33.0293 206.207 32.4902C207.637 31.9395 208.562 31.3184 208.984 30.627C209.043 31.0371 209.137 31.4707 209.266 31.9277C209.406 32.3848 209.564 32.7422 209.74 33H213.66V32.7188C213.344 32.2734 213.092 31.7051 212.904 31.0137C212.717 30.3105 212.623 29.584 212.623 28.834V21.0469C212.623 19.043 211.855 17.5781 210.32 16.6523C208.797 15.7148 206.752 15.2461 204.186 15.2461C201.584 15.2461 199.416 15.7324 197.682 16.7051C195.959 17.666 195.098 18.9141 195.098 20.4492V21.1348H199.105V20.5547C199.105 19.8633 199.533 19.3418 200.389 18.9902C201.244 18.6387 202.422 18.4629 203.922 18.4629C205.516 18.4629 206.688 18.6855 207.438 19.1309C208.199 19.5762 208.58 20.2031 208.58 21.0117V22.1367H203.5C200.852 22.1367 198.602 22.6582 196.75 23.7012C194.91 24.7324 193.99 26.1621 193.99 27.9902ZM198.068 27.8496C198.068 26.9824 198.602 26.3086 199.668 25.8281C200.746 25.3359 202.205 25.0898 204.045 25.0898H208.58V26.8828C208.58 27.8203 207.93 28.5938 206.629 29.2031C205.328 29.8008 203.957 30.0996 202.516 30.0996C201.098 30.0996 200.002 29.9062 199.229 29.5195C198.455 29.1328 198.068 28.5762 198.068 27.8496ZM215.682 24.6152C215.682 27.2637 216.625 29.4023 218.512 31.0312C220.41 32.6484 222.947 33.457 226.123 33.457C228.186 33.457 229.996 33.1465 231.555 32.5254C233.113 31.8926 234.227 31.002 234.895 29.8535L232.047 27.7266C231.473 28.3594 230.67 28.9102 229.639 29.3789C228.619 29.8359 227.477 30.0645 226.211 30.0645C224.219 30.0645 222.59 29.5605 221.324 28.5527C220.07 27.5449 219.443 26.2383 219.443 24.6328V23.9824C219.443 22.4121 220 21.1113 221.113 20.0801C222.227 19.0488 223.697 18.5332 225.525 18.5332C227.717 18.5332 229.211 18.9199 230.008 19.6934C230.816 20.4668 231.227 21.4805 231.238 22.7344L231.221 22.4707H217.967V25.4414H235.176V23.7891C235.199 21.1172 234.344 19.0254 232.609 17.5137C230.887 16.002 228.584 15.2461 225.701 15.2461C222.83 15.2461 220.439 16.0605 218.529 17.6895C216.631 19.3066 215.682 21.4277 215.682 24.0527V24.6152ZM237.742 33H241.17V22.4531C241.17 22.0195 241.17 21.6562 241.17 21.3633C241.17 21.0586 241.152 20.7246 241.117 20.3613H241.205C241.264 20.7129 241.363 21.0469 241.504 21.3633C241.645 21.6797 241.832 22.043 242.066 22.4531L248.096 33H251.365L257.395 22.4883C257.629 22.0547 257.816 21.6797 257.957 21.3633C258.098 21.0352 258.203 20.7012 258.273 20.3613H258.344C258.309 20.7129 258.291 21.0586 258.291 21.3984C258.291 21.7266 258.291 22.0957 258.291 22.5059V33H262.299V15.7031H257.008L250.961 26.0742C250.621 26.6953 250.398 27.1113 250.293 27.3223C250.188 27.5215 250.082 27.8262 249.977 28.2363H249.854C249.736 27.8262 249.637 27.5215 249.555 27.3223C249.473 27.123 249.262 26.7129 248.922 26.0918L242.998 15.7031H237.742V33ZM265.129 24.6152C265.129 27.3926 266.096 29.5605 268.029 31.1191C269.975 32.666 272.447 33.4395 275.447 33.4395C278.307 33.4395 280.551 32.7949 282.18 31.5059C283.82 30.2051 284.641 28.6465 284.641 26.8301V26.4609H280.633V26.8125C280.633 27.7617 280.176 28.5234 279.262 29.0977C278.359 29.6719 277.088 29.959 275.447 29.959C273.584 29.959 272.09 29.4961 270.965 28.5703C269.84 27.6328 269.277 26.3262 269.277 24.6504V24.0176C269.277 22.2832 269.84 20.9707 270.965 20.0801C272.102 19.1895 273.602 18.7441 275.465 18.7441C277.07 18.7441 278.318 19.0137 279.209 19.5527C280.111 20.0801 280.58 20.8008 280.615 21.7148L280.633 22.1719H284.658L284.623 21.5918C284.494 19.7637 283.65 18.252 282.092 17.0566C280.545 15.8496 278.33 15.2461 275.447 15.2461C272.447 15.2461 269.975 16.0195 268.029 17.5664C266.096 19.1016 265.129 21.2637 265.129 24.0527V24.6152ZM290.477 33L296.365 25.9863L291.9 25.7578L285.748 33H290.477ZM300.18 33H304.223V15.7031H293.553C291.432 15.7031 289.797 16.2305 288.648 17.2852C287.512 18.3281 286.943 19.7285 286.943 21.4863C286.943 23.1035 287.418 24.416 288.367 25.4238C289.316 26.4316 290.67 27.0234 292.428 27.1992L293.219 27.2695H300.18V33ZM293.746 23.8066C292.703 23.8066 291.982 23.5957 291.584 23.1738C291.186 22.7402 290.986 22.1836 290.986 21.5039C290.986 20.8359 291.186 20.2793 291.584 19.834C291.994 19.3887 292.715 19.166 293.746 19.166H300.18V23.8066H293.746ZM2.03711 69.9902C2.03711 71.7129 2.77539 73.0312 4.25195 73.9453C5.74023 74.8477 7.48633 75.2988 9.49023 75.2988C11.248 75.2988 12.8359 75.0293 14.2539 74.4902C15.6836 73.9395 16.6094 73.3184 17.0312 72.627C17.0898 73.0371 17.1836 73.4707 17.3125 73.9277C17.4531 74.3848 17.6113 74.7422 17.7871 75H21.707V74.7188C21.3906 74.2734 21.1387 73.7051 20.9512 73.0137C20.7637 72.3105 20.6699 71.584 20.6699 70.834V63.0469C20.6699 61.043 19.9023 59.5781 18.3672 58.6523C16.8438 57.7148 14.7988 57.2461 12.2324 57.2461C9.63086 57.2461 7.46289 57.7324 5.72852 58.7051C4.00586 59.666 3.14453 60.9141 3.14453 62.4492V63.1348H7.15234V62.5547C7.15234 61.8633 7.58008 61.3418 8.43555 60.9902C9.29102 60.6387 10.4688 60.4629 11.9688 60.4629C13.5625 60.4629 14.7344 60.6855 15.4844 61.1309C16.2461 61.5762 16.627 62.2031 16.627 63.0117V64.1367H11.5469C8.89844 64.1367 6.64844 64.6582 4.79688 65.7012C2.95703 66.7324 2.03711 68.1621 2.03711 69.9902ZM6.11523 69.8496C6.11523 68.9824 6.64844 68.3086 7.71484 67.8281C8.79297 67.3359 10.252 67.0898 12.0918 67.0898H16.627V68.8828C16.627 69.8203 15.9766 70.5938 14.6758 71.2031C13.375 71.8008 12.0039 72.0996 10.5625 72.0996C9.14453 72.0996 8.04883 71.9062 7.27539 71.5195C6.50195 71.1328 6.11523 70.5762 6.11523 69.8496ZM40.9551 79.6582H44.8926V71.3965H22.7617V79.6582H26.7168V75H40.9551V79.6582ZM29.3711 61.2891H38.459V75H42.502V57.7031H25.8027L25.3984 65.3145C25.2812 67.4355 25.1348 68.9414 24.959 69.832C24.7832 70.7227 24.4316 71.6074 23.9043 72.4863H27.9648C28.2695 71.8887 28.5273 71.1211 28.7383 70.1836C28.9492 69.2461 29.0957 67.7109 29.1777 65.5781L29.3711 61.2891ZM46.0176 69.9902C46.0176 71.7129 46.7559 73.0312 48.2324 73.9453C49.7207 74.8477 51.4668 75.2988 53.4707 75.2988C55.2285 75.2988 56.8164 75.0293 58.2344 74.4902C59.6641 73.9395 60.5898 73.3184 61.0117 72.627C61.0703 73.0371 61.1641 73.4707 61.293 73.9277C61.4336 74.3848 61.5918 74.7422 61.7676 75H65.6875V74.7188C65.3711 74.2734 65.1191 73.7051 64.9316 73.0137C64.7441 72.3105 64.6504 71.584 64.6504 70.834V63.0469C64.6504 61.043 63.8828 59.5781 62.3477 58.6523C60.8242 57.7148 58.7793 57.2461 56.2129 57.2461C53.6113 57.2461 51.4434 57.7324 49.709 58.7051C47.9863 59.666 47.125 60.9141 47.125 62.4492V63.1348H51.1328V62.5547C51.1328 61.8633 51.5605 61.3418 52.416 60.9902C53.2715 60.6387 54.4492 60.4629 55.9492 60.4629C57.543 60.4629 58.7148 60.6855 59.4648 61.1309C60.2266 61.5762 60.6074 62.2031 60.6074 63.0117V64.1367H55.5273C52.8789 64.1367 50.6289 64.6582 48.7773 65.7012C46.9375 66.7324 46.0176 68.1621 46.0176 69.9902ZM50.0957 69.8496C50.0957 68.9824 50.6289 68.3086 51.6953 67.8281C52.7734 67.3359 54.2324 67.0898 56.0723 67.0898H60.6074V68.8828C60.6074 69.8203 59.957 70.5938 58.6562 71.2031C57.3555 71.8008 55.9844 72.0996 54.543 72.0996C53.125 72.0996 52.0293 71.9062 51.2559 71.5195C50.4824 71.1328 50.0957 70.5762 50.0957 69.8496ZM68.5176 57.7031V75H72.5605V61.2891H82.8965V75H86.9395V57.7031H68.5176ZM89.3125 61.2891H96.0625V75H100.105V61.2891H106.855V57.7031H89.3125V61.2891ZM109.229 75H113.465L122.518 64.418C122.822 64.0312 123.027 63.7266 123.133 63.5039C123.25 63.2695 123.42 62.9707 123.643 62.6074H123.449C123.449 63.0176 123.455 63.3633 123.467 63.6445C123.49 63.9258 123.502 64.2715 123.502 64.6816V75H127.65V57.7031H123.414L114.361 68.25C114.068 68.6484 113.863 68.9941 113.746 69.2871C113.629 69.5684 113.482 69.8965 113.307 70.2715C113.342 69.8613 113.359 69.4863 113.359 69.1465C113.371 68.7949 113.377 68.4141 113.377 68.0039V57.7031H109.229V75ZM131.43 82.541H135.473V72.8555C136.141 73.6406 137.131 74.2559 138.443 74.7012C139.756 75.1348 141.174 75.3516 142.697 75.3516C145.275 75.3516 147.355 74.543 148.938 72.9258C150.531 71.3086 151.328 69.1934 151.328 66.5801V66.0176C151.328 63.416 150.508 61.3184 148.867 59.7246C147.227 58.1309 145.059 57.334 142.363 57.334C140.84 57.334 139.416 57.5918 138.092 58.1074C136.768 58.623 135.836 59.2793 135.297 60.0762L135.209 57.7031H131.43V82.541ZM135.473 68.8125V63.8555C135.895 63.0703 136.662 62.3906 137.775 61.8164C138.9 61.2305 140.113 60.9375 141.414 60.9375C143.324 60.9375 144.76 61.3477 145.721 62.168C146.682 62.9766 147.162 64.248 147.162 65.9824V66.6152C147.162 68.3262 146.682 69.6152 145.721 70.4824C144.76 71.3379 143.318 71.7656 141.396 71.7656C140.107 71.7656 138.9 71.4727 137.775 70.8867C136.65 70.3008 135.883 69.6094 135.473 68.8125ZM153.227 66.6152C153.227 69.252 154.211 71.3848 156.18 73.0137C158.16 74.6309 160.674 75.4395 163.721 75.4395C166.756 75.4395 169.258 74.6309 171.227 73.0137C173.207 71.3848 174.197 69.252 174.197 66.6152V66.0527C174.197 63.4277 173.207 61.3066 171.227 59.6895C169.258 58.0605 166.756 57.2461 163.721 57.2461C160.674 57.2461 158.16 58.0605 156.18 59.6895C154.211 61.3066 153.227 63.4277 153.227 66.0527V66.6152ZM157.375 66.0176C157.375 64.3887 157.943 63.123 159.08 62.2207C160.229 61.3066 161.77 60.8496 163.703 60.8496C165.648 60.8496 167.189 61.3066 168.326 62.2207C169.475 63.123 170.049 64.3887 170.049 66.0176V66.6504C170.049 68.2793 169.475 69.5566 168.326 70.4824C167.189 71.3965 165.648 71.8535 163.703 71.8535C161.77 71.8535 160.229 71.3965 159.08 70.4824C157.943 69.5566 157.375 68.2793 157.375 66.6504V66.0176ZM177.01 75H189.42C191.564 75 193.17 74.5664 194.236 73.6992C195.303 72.832 195.836 71.7246 195.836 70.377C195.836 69.1582 195.473 68.1797 194.746 67.4414C194.031 66.6914 193.205 66.2344 192.268 66.0703V66.0352C193.123 65.7422 193.814 65.2617 194.342 64.5938C194.881 63.9258 195.15 63.0234 195.15 61.8867C195.15 60.5977 194.67 59.5781 193.709 58.8281C192.748 58.0781 191.16 57.7031 188.945 57.7031H177.01V75ZM181.035 64.6641V60.9551H188.312C189.391 60.9551 190.129 61.1016 190.527 61.3945C190.938 61.6875 191.143 62.1328 191.143 62.7305C191.143 63.3867 190.943 63.873 190.545 64.1895C190.146 64.5059 189.402 64.6641 188.312 64.6641H181.035ZM181.035 71.7305V67.6875H188.752C189.854 67.6875 190.639 67.8633 191.107 68.2148C191.576 68.5547 191.811 69.0703 191.811 69.7617C191.811 70.4648 191.564 70.9688 191.072 71.2734C190.592 71.5781 189.818 71.7305 188.752 71.7305H181.035ZM198.174 69.9902C198.174 71.7129 198.912 73.0312 200.389 73.9453C201.877 74.8477 203.623 75.2988 205.627 75.2988C207.385 75.2988 208.973 75.0293 210.391 74.4902C211.82 73.9395 212.746 73.3184 213.168 72.627C213.227 73.0371 213.32 73.4707 213.449 73.9277C213.59 74.3848 213.748 74.7422 213.924 75H217.844V74.7188C217.527 74.2734 217.275 73.7051 217.088 73.0137C216.9 72.3105 216.807 71.584 216.807 70.834V63.0469C216.807 61.043 216.039 59.5781 214.504 58.6523C212.98 57.7148 210.936 57.2461 208.369 57.2461C205.768 57.2461 203.6 57.7324 201.865 58.7051C200.143 59.666 199.281 60.9141 199.281 62.4492V63.1348H203.289V62.5547C203.289 61.8633 203.717 61.3418 204.572 60.9902C205.428 60.6387 206.605 60.4629 208.105 60.4629C209.699 60.4629 210.871 60.6855 211.621 61.1309C212.383 61.5762 212.764 62.2031 212.764 63.0117V64.1367H207.684C205.035 64.1367 202.785 64.6582 200.934 65.7012C199.094 66.7324 198.174 68.1621 198.174 69.9902ZM202.252 69.8496C202.252 68.9824 202.785 68.3086 203.852 67.8281C204.93 67.3359 206.389 67.0898 208.229 67.0898H212.764V68.8828C212.764 69.8203 212.113 70.5938 210.812 71.2031C209.512 71.8008 208.141 72.0996 206.699 72.0996C205.281 72.0996 204.186 71.9062 203.412 71.5195C202.639 71.1328 202.252 70.5762 202.252 69.8496ZM220.674 57.7031V75H224.717V68.0742H235.246V75H239.289V57.7031H235.246V64.4883H224.717V57.7031H220.674ZM242.998 75H247.234L256.287 64.418C256.592 64.0312 256.797 63.7266 256.902 63.5039C257.02 63.2695 257.189 62.9707 257.412 62.6074H257.219C257.219 63.0176 257.225 63.3633 257.236 63.6445C257.26 63.9258 257.271 64.2715 257.271 64.6816V75H261.42V57.7031H257.184L248.131 68.25C247.838 68.6484 247.633 68.9941 247.516 69.2871C247.398 69.5684 247.252 69.8965 247.076 70.2715C247.111 69.8613 247.129 69.4863 247.129 69.1465C247.141 68.7949 247.146 68.4141 247.146 68.0039V57.7031H242.998V75ZM264.303 66.6152C264.303 69.2637 265.246 71.4023 267.133 73.0312C269.031 74.6484 271.568 75.457 274.744 75.457C276.807 75.457 278.617 75.1465 280.176 74.5254C281.734 73.8926 282.848 73.002 283.516 71.8535L280.668 69.7266C280.094 70.3594 279.291 70.9102 278.26 71.3789C277.24 71.8359 276.098 72.0645 274.832 72.0645C272.84 72.0645 271.211 71.5605 269.945 70.5527C268.691 69.5449 268.064 68.2383 268.064 66.6328V65.9824C268.064 64.4121 268.621 63.1113 269.734 62.0801C270.848 61.0488 272.318 60.5332 274.146 60.5332C276.338 60.5332 277.832 60.9199 278.629 61.6934C279.438 62.4668 279.848 63.4805 279.859 64.7344L279.842 64.4707H266.588V67.4414H283.797V65.7891C283.82 63.1172 282.965 61.0254 281.23 59.5137C279.508 58.002 277.205 57.2461 274.322 57.2461C271.451 57.2461 269.061 58.0605 267.15 59.6895C265.252 61.3066 264.303 63.4277 264.303 66.0527V66.6152ZM286.363 75H289.791V64.4531C289.791 64.0195 289.791 63.6562 289.791 63.3633C289.791 63.0586 289.773 62.7246 289.738 62.3613H289.826C289.885 62.7129 289.984 63.0469 290.125 63.3633C290.266 63.6797 290.453 64.043 290.688 64.4531L296.717 75H299.986L306.016 64.4883C306.25 64.0547 306.438 63.6797 306.578 63.3633C306.719 63.0352 306.824 62.7012 306.895 62.3613H306.965C306.93 62.7129 306.912 63.0586 306.912 63.3984C306.912 63.7266 306.912 64.0957 306.912 64.5059V75H310.92V57.7031H305.629L299.582 68.0742C299.242 68.6953 299.02 69.1113 298.914 69.3223C298.809 69.5215 298.703 69.8262 298.598 70.2363H298.475C298.357 69.8262 298.258 69.5215 298.176 69.3223C298.094 69.123 297.883 68.7129 297.543 68.0918L291.619 57.7031H286.363V75ZM2.8457 99.7031V117H6.88867V103.289H17.2246V117H21.2676V99.7031H2.8457ZM24.0625 108.615C24.0625 111.252 25.0469 113.385 27.0156 115.014C28.9961 116.631 31.5098 117.439 34.5566 117.439C37.5918 117.439 40.0938 116.631 42.0625 115.014C44.043 113.385 45.0332 111.252 45.0332 108.615V108.053C45.0332 105.428 44.043 103.307 42.0625 101.689C40.0938 100.061 37.5918 99.2461 34.5566 99.2461C31.5098 99.2461 28.9961 100.061 27.0156 101.689C25.0469 103.307 24.0625 105.428 24.0625 108.053V108.615ZM28.2109 108.018C28.2109 106.389 28.7793 105.123 29.916 104.221C31.0645 103.307 32.6055 102.85 34.5391 102.85C36.4844 102.85 38.0254 103.307 39.1621 104.221C40.3105 105.123 40.8848 106.389 40.8848 108.018V108.65C40.8848 110.279 40.3105 111.557 39.1621 112.482C38.0254 113.396 36.4844 113.854 34.5391 113.854C32.6055 113.854 31.0645 113.396 29.916 112.482C28.7793 111.557 28.2109 110.279 28.2109 108.65V108.018ZM64.2637 121.658H68.2012V113.396H46.0703V121.658H50.0254V117H64.2637V121.658ZM52.6797 103.289H61.7676V117H65.8105V99.7031H49.1113L48.707 107.314C48.5898 109.436 48.4434 110.941 48.2676 111.832C48.0918 112.723 47.7402 113.607 47.2129 114.486H51.2734C51.5781 113.889 51.8359 113.121 52.0469 112.184C52.2578 111.246 52.4043 109.711 52.4863 107.578L52.6797 103.289ZM77.7988 117H90.209C92.3535 117 93.959 116.566 95.0254 115.699C96.0918 114.832 96.625 113.725 96.625 112.377C96.625 111.158 96.2617 110.18 95.5352 109.441C94.8203 108.691 93.9941 108.234 93.0566 108.07V108.035C93.9121 107.742 94.6035 107.262 95.1309 106.594C95.6699 105.926 95.9395 105.023 95.9395 103.887C95.9395 102.598 95.459 101.578 94.498 100.828C93.5371 100.078 91.9492 99.7031 89.7344 99.7031H77.7988V117ZM81.8242 106.664V102.955H89.1016C90.1797 102.955 90.918 103.102 91.3164 103.395C91.7266 103.688 91.9316 104.133 91.9316 104.73C91.9316 105.387 91.7324 105.873 91.334 106.189C90.9355 106.506 90.1914 106.664 89.1016 106.664H81.8242ZM81.8242 113.73V109.688H89.541C90.6426 109.688 91.4277 109.863 91.8965 110.215C92.3652 110.555 92.5996 111.07 92.5996 111.762C92.5996 112.465 92.3535 112.969 91.8613 113.273C91.3809 113.578 90.6074 113.73 89.541 113.73H81.8242ZM98.9629 111.99C98.9629 113.713 99.7012 115.031 101.178 115.945C102.666 116.848 104.412 117.299 106.416 117.299C108.174 117.299 109.762 117.029 111.18 116.49C112.609 115.939 113.535 115.318 113.957 114.627C114.016 115.037 114.109 115.471 114.238 115.928C114.379 116.385 114.537 116.742 114.713 117H118.633V116.719C118.316 116.273 118.064 115.705 117.877 115.014C117.689 114.311 117.596 113.584 117.596 112.834V105.047C117.596 103.043 116.828 101.578 115.293 100.652C113.77 99.7148 111.725 99.2461 109.158 99.2461C106.557 99.2461 104.389 99.7324 102.654 100.705C100.932 101.666 100.07 102.914 100.07 104.449V105.135H104.078V104.555C104.078 103.863 104.506 103.342 105.361 102.99C106.217 102.639 107.395 102.463 108.895 102.463C110.488 102.463 111.66 102.686 112.41 103.131C113.172 103.576 113.553 104.203 113.553 105.012V106.137H108.473C105.824 106.137 103.574 106.658 101.723 107.701C99.8828 108.732 98.9629 110.162 98.9629 111.99ZM103.041 111.85C103.041 110.982 103.574 110.309 104.641 109.828C105.719 109.336 107.178 109.09 109.018 109.09H113.553V110.883C113.553 111.82 112.902 112.594 111.602 113.203C110.301 113.801 108.93 114.1 107.488 114.1C106.07 114.1 104.975 113.906 104.201 113.52C103.428 113.133 103.041 112.576 103.041 111.85ZM121.463 117H148.27V99.7031H144.227V113.396H136.896V99.7031H132.836V113.396H125.506V99.7031H121.463V117ZM178.047 108.615V108.053C178.047 105.158 177.104 102.967 175.217 101.479C173.342 99.9902 170.793 99.2461 167.57 99.2461C164.688 99.2461 162.432 99.8086 160.803 100.934C159.186 102.047 158.371 103.453 158.359 105.152V105.838H162.314V105.293C162.314 104.449 162.766 103.811 163.668 103.377C164.582 102.943 165.877 102.727 167.553 102.727C169.709 102.727 171.273 103.049 172.246 103.693C173.23 104.326 173.723 105.908 173.723 108.439V108.264C173.723 110.525 173.219 112.043 172.211 112.816C171.215 113.59 169.65 113.977 167.518 113.977C165.818 113.977 164.506 113.725 163.58 113.221C162.666 112.717 162.209 112.025 162.209 111.146V110.689H158.254V111.164C158.254 112.898 159.074 114.381 160.715 115.611C162.367 116.83 164.641 117.439 167.535 117.439C170.734 117.439 173.283 116.689 175.182 115.189C177.092 113.678 178.047 111.486 178.047 108.615ZM175.955 106.717H165.584V109.846H175.955V106.717ZM193.955 117H198.859L189.438 107.191L186.537 109.248L193.955 117ZM182.863 106.488V110.074H188.418L198.016 99.7031H193.533L187.223 106.488H182.863ZM184.885 99.7031H180.842V117H184.885V99.7031ZM199.949 124.541H203.992V114.855C204.66 115.641 205.65 116.256 206.963 116.701C208.275 117.135 209.693 117.352 211.217 117.352C213.795 117.352 215.875 116.543 217.457 114.926C219.051 113.309 219.848 111.193 219.848 108.58V108.018C219.848 105.416 219.027 103.318 217.387 101.725C215.746 100.131 213.578 99.334 210.883 99.334C209.359 99.334 207.936 99.5918 206.611 100.107C205.287 100.623 204.355 101.279 203.816 102.076L203.729 99.7031H199.949V124.541ZM203.992 110.812V105.855C204.414 105.07 205.182 104.391 206.295 103.816C207.42 103.23 208.633 102.938 209.934 102.938C211.844 102.938 213.279 103.348 214.24 104.168C215.201 104.977 215.682 106.248 215.682 107.982V108.615C215.682 110.326 215.201 111.615 214.24 112.482C213.279 113.338 211.838 113.766 209.916 113.766C208.627 113.766 207.42 113.473 206.295 112.887C205.17 112.301 204.402 111.609 203.992 110.812ZM221.834 111.99C221.834 113.713 222.572 115.031 224.049 115.945C225.537 116.848 227.283 117.299 229.287 117.299C231.045 117.299 232.633 117.029 234.051 116.49C235.48 115.939 236.406 115.318 236.828 114.627C236.887 115.037 236.98 115.471 237.109 115.928C237.25 116.385 237.408 116.742 237.584 117H241.504V116.719C241.188 116.273 240.936 115.705 240.748 115.014C240.561 114.311 240.467 113.584 240.467 112.834V105.047C240.467 103.043 239.699 101.578 238.164 100.652C236.641 99.7148 234.596 99.2461 232.029 99.2461C229.428 99.2461 227.26 99.7324 225.525 100.705C223.803 101.666 222.941 102.914 222.941 104.449V105.135H226.949V104.555C226.949 103.863 227.377 103.342 228.232 102.99C229.088 102.639 230.266 102.463 231.766 102.463C233.359 102.463 234.531 102.686 235.281 103.131C236.043 103.576 236.424 104.203 236.424 105.012V106.137H231.344C228.695 106.137 226.445 106.658 224.594 107.701C222.754 108.732 221.834 110.162 221.834 111.99ZM225.912 111.85C225.912 110.982 226.445 110.309 227.512 109.828C228.59 109.336 230.049 109.09 231.889 109.09H236.424V110.883C236.424 111.82 235.773 112.594 234.473 113.203C233.172 113.801 231.801 114.1 230.359 114.1C228.941 114.1 227.846 113.906 227.072 113.52C226.299 113.133 225.912 112.576 225.912 111.85ZM244.334 99.7031V117H248.377V110.074H258.906V117H262.949V99.7031H258.906V106.488H248.377V99.7031H244.334Z" fill="white"/>
</svg>
