<svg width="172" height="31" viewBox="0 0 172 31" fill="none" xmlns="http://www.w3.org/2000/svg">
<mask id="mask0_7749_51419" style="mask-type:alpha" maskUnits="userSpaceOnUse" x="0" y="0" width="30" height="31">
<rect width="30" height="30" rx="8.57143" transform="matrix(1 0 0 -1 6.10352e-05 30.5)" fill="#622BFF"/>
</mask>
<g mask="url(#mask0_7749_51419)">
<path fill-rule="evenodd" clip-rule="evenodd" d="M1.44461 26.6906C6.10352e-05 24.5287 6.10352e-05 21.5191 6.10352e-05 15.5C6.10352e-05 9.48088 6.10352e-05 6.47132 1.44461 4.3094C2.06997 3.37348 2.87354 2.5699 3.80946 1.94455C5.97138 0.5 8.98094 0.5 15.0001 0.5C21.0192 0.5 24.0288 0.5 26.1907 1.94455C27.1266 2.5699 27.9302 3.37348 28.5555 4.3094C30.0001 6.47132 30.0001 9.48088 30.0001 15.5C30.0001 21.5191 30.0001 24.5287 28.5555 26.6906C27.9302 27.6265 27.1266 28.4301 26.1907 29.0555C24.0288 30.5 21.0192 30.5 15.0001 30.5C8.98094 30.5 5.97138 30.5 3.80946 29.0555C2.87354 28.4301 2.06997 27.6265 1.44461 26.6906ZM8.40006 23.3H12.0001L21.6001 7.7H18.0001L8.40006 23.3Z" fill="white"/>
</g>
<path d="M56.9265 16.6283C56.9265 18.97 57.8034 20.8806 59.5572 22.3601C61.311 23.8297 63.54 24.5646 66.2442 24.5646C68.9582 24.5646 71.1872 23.8297 72.9312 22.3601C74.685 20.8806 75.5619 18.97 75.5619 16.6283V16.158C75.5619 13.8066 74.685 11.896 72.9312 10.4263C71.1872 8.94686 68.9582 8.20712 66.2442 8.20712C63.54 8.20712 61.311 8.94686 59.5572 10.4263C57.8034 11.896 56.9265 13.8066 56.9265 16.158V16.6283ZM60.8358 16.114C60.8358 14.7129 61.3208 13.6008 62.2908 12.7778C63.2705 11.9548 64.5883 11.5433 66.2442 11.5433C67.9098 11.5433 69.2276 11.9548 70.1976 12.7778C71.1676 13.6008 71.6526 14.7129 71.6526 16.114V16.6577C71.6526 18.0686 71.1676 19.1856 70.1976 20.0086C69.2276 20.8316 67.9098 21.2431 66.2442 21.2431C64.5785 21.2431 63.2607 20.8316 62.2908 20.0086C61.3208 19.1856 60.8358 18.0686 60.8358 16.6577V16.114Z" fill="white"/>
<path d="M75.7676 8.66272L83.116 24.1237H86.7461L94.212 8.66272H90.3321L85.9525 17.8335C85.7565 18.2254 85.5948 18.6565 85.4675 19.1268C85.3401 19.5873 85.2127 20.1751 85.0854 20.8904H85.0266C84.909 20.1751 84.7816 19.5824 84.6445 19.1121C84.5171 18.6418 84.3603 18.2156 84.1742 17.8335L79.8092 8.66272H75.7676Z" fill="white"/>
<path d="M94.5353 16.6283C94.5353 18.97 95.3829 20.8806 97.0779 22.3601C98.7729 23.8395 101.056 24.5793 103.927 24.5793C105.71 24.5793 107.297 24.2902 108.688 23.7122C110.08 23.1341 111.079 22.3503 111.686 21.3607L109.114 19.3472C108.595 19.8763 107.885 20.3564 106.983 20.7875C106.092 21.2088 105.102 21.4195 104.015 21.4195C102.241 21.4195 100.816 20.9639 99.738 20.0527C98.67 19.1415 98.136 18.0098 98.136 16.6577V16.114C98.136 14.7619 98.6112 13.6204 99.5616 12.6896C100.522 11.749 101.796 11.2787 103.383 11.2787C105.156 11.2787 106.4 11.5923 107.116 12.2193C107.841 12.8366 108.208 13.6792 108.218 14.7472L108.203 14.659H96.8133V17.4954H111.951V15.8935C111.971 13.5322 111.201 11.6608 109.644 10.2794C108.096 8.89787 106.038 8.20712 103.471 8.20712C100.914 8.20712 98.7827 8.94686 97.0779 10.4263C95.3829 11.9058 94.5353 13.8164 94.5353 16.158V16.6283Z" fill="white"/>
<path d="M114.582 24.1237H118.403V1.56421H114.582V24.1237Z" fill="white"/>
<path d="M122.048 24.1237H125.869V1.56421H122.048V24.1237Z" fill="white"/>
<path d="M129.514 24.1237H133.335V1.56421H129.514V24.1237Z" fill="white"/>
<path d="M136.245 19.5677C136.245 21.1451 136.926 22.3503 138.287 23.1831C139.649 24.0061 141.197 24.4176 142.932 24.4176C144.44 24.4176 145.802 24.1873 147.017 23.7269C148.242 23.2664 149.041 22.7373 149.413 22.1396C149.452 22.4825 149.526 22.845 149.633 23.2272C149.751 23.6093 149.883 23.9081 150.03 24.1237H153.748V23.8885C153.484 23.5064 153.268 23.0214 153.102 22.4335C152.935 21.8457 152.852 21.2382 152.852 20.6111V13.542C152.852 11.7686 152.171 10.441 150.809 9.55922C149.447 8.66762 147.61 8.22182 145.298 8.22182C143.005 8.22182 141.09 8.67252 139.551 9.57392C138.013 10.4753 137.244 11.6119 137.244 12.9836V13.3657H141.05V12.9836C141.05 12.4839 141.393 12.0675 142.079 11.7343C142.765 11.4012 143.764 11.2346 145.077 11.2346C146.459 11.2346 147.463 11.4502 148.09 11.8813C148.727 12.3026 149.045 12.8513 149.045 13.5273V14.3357H144.739C142.407 14.3357 140.409 14.7913 138.743 15.7024C137.077 16.6136 136.245 17.9021 136.245 19.5677ZM140.11 19.3913C140.11 18.6761 140.561 18.1127 141.462 17.7012C142.373 17.2799 143.588 17.0692 145.107 17.0692H149.045V18.6712C149.045 19.4452 148.497 20.0968 147.399 20.6258C146.312 21.1549 145.151 21.4195 143.916 21.4195C142.662 21.4195 141.712 21.2431 141.065 20.8904C140.428 20.5279 140.11 20.0282 140.11 19.3913Z" fill="white"/>
<path d="M155.63 19.1415V19.3766C155.63 20.9541 156.345 22.2131 157.775 23.1537C159.216 24.0943 161.2 24.5646 163.727 24.5646C166.265 24.5646 168.22 24.0943 169.591 23.1537C170.963 22.2033 171.649 20.9835 171.649 19.4942C171.649 18.1911 171.115 17.1525 170.047 16.3785C168.979 15.5947 167.377 15.0411 165.241 14.7178C163.115 14.3944 161.739 14.1054 161.111 13.8507C160.484 13.5959 160.171 13.2383 160.171 12.7778C160.171 12.3075 160.465 11.9401 161.053 11.6755C161.641 11.4012 162.571 11.264 163.845 11.264C165.109 11.264 166.059 11.4404 166.696 11.7931C167.333 12.1458 167.651 12.6504 167.651 13.3069V13.6449H171.443V13.2775C171.443 11.8568 170.757 10.6566 169.386 9.67679C168.014 8.69701 166.167 8.20712 163.845 8.20712C161.523 8.20712 159.696 8.66272 158.363 9.57392C157.031 10.4753 156.364 11.6266 156.364 13.0276C156.364 14.2328 156.869 15.2371 157.878 16.0405C158.887 16.8341 160.46 17.3926 162.596 17.7159C164.722 18.0392 166.118 18.3185 166.784 18.5536C167.46 18.7888 167.798 19.1856 167.798 19.744C167.798 20.3025 167.456 20.7385 166.77 21.052C166.084 21.3656 165.07 21.5223 163.727 21.5223C162.395 21.5223 161.347 21.3705 160.582 21.0667C159.818 20.763 159.436 20.2535 159.436 19.5383V19.1415H155.63Z" fill="white"/>
<path d="M46.2334 8.66295H49.8635L57.2119 24.1239H53.1703L48.8053 14.9531C48.6192 14.571 48.4624 14.1448 48.335 13.6745C48.1979 13.2042 48.0705 12.6115 47.9529 11.8962H47.8941C47.7668 12.6115 47.6394 13.1993 47.512 13.6598C47.3847 14.1301 47.223 14.5612 47.027 14.9531L42.6474 24.1239H38.7675L46.2334 8.66295Z" fill="white"/>
</svg>
