<svg width="56" height="56" viewBox="0 0 56 56" fill="none" xmlns="http://www.w3.org/2000/svg">
<g filter="url(#filter0_d_7763_28723)">
<path d="M52 24C52 37.2548 41.2548 48 28 48C14.7452 48 4 37.2548 4 24C4 10.7452 14.7452 0 28 0C41.2548 0 52 10.7452 52 24Z" fill="#F6C3CB"/>
</g>
<path d="M40.8883 25.4933L37.5482 20.8171H40.2379L42.2595 23.6474L44.362 20.8171H46.7827L43.4461 25.3087L46.962 30.2309H44.2723L42.0749 27.1545L39.7896 30.2309H37.3689L40.8883 25.4933Z" fill="black"/>
<path d="M11.3689 17.5V30.231H13.6103V20.7276L16.9275 30.231H19.4379L22.6654 20.7276V30.231H24.9965V17.5H21.3206L18.1827 27.4517L15.0448 17.5H11.3689Z" fill="black"/>
<path fill-rule="evenodd" clip-rule="evenodd" d="M30.8241 30.4998C31.9391 30.4998 32.9508 29.966 33.6931 29.0985V30.2309H36.1137V20.8171H33.6931V21.9494C32.9508 21.082 31.9391 20.5481 30.8241 20.5481C28.5464 20.5481 26.7 22.7759 26.7 25.524C26.7 28.2721 28.5464 30.4998 30.8241 30.4998ZM31.5862 28.7067C32.8488 28.7067 33.8724 27.3018 33.8724 25.5688C33.8724 23.8358 32.8488 22.4309 31.5862 22.4309C30.3235 22.4309 29.2999 23.8358 29.2999 25.5688C29.2999 27.3018 30.3235 28.7067 31.5862 28.7067Z" fill="black"/>
<defs>
<filter id="filter0_d_7763_28723" x="0" y="0" width="56" height="56" filterUnits="userSpaceOnUse" color-interpolation-filters="sRGB">
<feFlood flood-opacity="0" result="BackgroundImageFix"/>
<feColorMatrix in="SourceAlpha" type="matrix" values="0 0 0 0 0 0 0 0 0 0 0 0 0 0 0 0 0 0 127 0" result="hardAlpha"/>
<feOffset dy="4"/>
<feGaussianBlur stdDeviation="2"/>
<feComposite in2="hardAlpha" operator="out"/>
<feColorMatrix type="matrix" values="0 0 0 0 0 0 0 0 0 0 0 0 0 0 0 0 0 0 0.25 0"/>
<feBlend mode="normal" in2="BackgroundImageFix" result="effect1_dropShadow_7763_28723"/>
<feBlend mode="normal" in="SourceGraphic" in2="effect1_dropShadow_7763_28723" result="shape"/>
</filter>
</defs>
</svg>
