<svg width="48" height="48" viewBox="0 0 48 48" fill="none" xmlns="http://www.w3.org/2000/svg">
<circle cx="24" cy="24" r="24" fill="white"/>
<path d="M38.2921 13.0225C39.1447 14.122 39.8552 15.3279 40.4591 16.6047L24.0466 28.6993L17.1548 24.3722V19.1939L24.0111 23.4855L38.2921 13.0225Z" fill="#21A038"/>
<path d="M10.1564 24.0181C10.1564 23.7698 10.1564 23.557 10.1919 23.3088L6.03552 23.0959C6.03552 23.3797 6 23.6989 6 23.9826C6 28.9482 8.02492 33.4526 11.2932 36.7157L14.2418 33.7718C11.7195 31.289 10.1564 27.8487 10.1564 24.0181Z" fill="url(#paint0_linear_7763_28736)"/>
<path d="M24.0111 10.1854C24.2598 10.1854 24.473 10.1854 24.7216 10.2209L24.9348 6.07111C24.6506 6.07111 24.3309 6.03564 24.0467 6.03564C19.0732 6.03564 14.5615 8.05732 11.2932 11.3204L14.2418 14.2642C16.7285 11.746 20.21 10.1854 24.0111 10.1854Z" fill="url(#paint1_linear_7763_28736)"/>
<path d="M24.011 37.8503C23.7624 37.8503 23.5492 37.8503 23.3006 37.8148L23.0874 41.9646C23.3716 41.9646 23.6913 42.0001 23.9755 42.0001C28.949 42.0001 33.4607 39.9784 36.729 36.7153L33.7804 33.7715C31.2937 36.3252 27.8477 37.8503 24.011 37.8503Z" fill="url(#paint2_linear_7763_28736)"/>
<path d="M31.8266 12.597L35.3436 10.0079C32.2529 7.52512 28.3096 6 24.0111 6V10.1498C26.9242 10.1852 29.624 11.0719 31.8266 12.597Z" fill="url(#paint3_linear_7763_28736)"/>
<path d="M42.0579 24.0181C42.0579 22.9186 41.9513 21.8546 41.7737 20.7905L37.9014 23.6634C37.9014 23.7698 37.9014 23.9117 37.9014 24.0181C37.9014 28.0969 36.1252 31.7501 33.3187 34.2684L36.1252 37.3541C39.7487 34.091 42.0579 29.3028 42.0579 24.0181Z" fill="#21A038"/>
<path d="M24.0111 37.85C19.9257 37.85 16.2666 36.0766 13.7444 33.2747L10.6537 36.0766C13.9575 39.7298 18.7178 41.9998 24.0111 41.9998V37.85Z" fill="url(#paint4_linear_7763_28736)"/>
<path d="M14.7391 13.7676L11.9327 10.6819C8.27359 13.9804 6 18.7331 6 24.0178H10.1564C10.1564 19.9745 11.9327 16.2858 14.7391 13.7676Z" fill="url(#paint5_linear_7763_28736)"/>
<defs>
<linearGradient id="paint0_linear_7763_28736" x1="10.8633" y1="36.2108" x2="6.62121" y2="23.9684" gradientUnits="userSpaceOnUse">
<stop offset="0.1444" stop-color="#F2E913"/>
<stop offset="0.3037" stop-color="#E7E518"/>
<stop offset="0.5823" stop-color="#CADB26"/>
<stop offset="0.891" stop-color="#A3CD39"/>
</linearGradient>
<linearGradient id="paint1_linear_7763_28736" x1="12.478" y1="10.8392" x2="23.2572" y2="6.73807" gradientUnits="userSpaceOnUse">
<stop offset="0.0592" stop-color="#0FA8E0"/>
<stop offset="0.5385" stop-color="#0099F9"/>
<stop offset="0.9234" stop-color="#0291EB"/>
</linearGradient>
<linearGradient id="paint2_linear_7763_28736" x1="22.8433" y1="38.4602" x2="35.6905" y2="35.5612" gradientUnits="userSpaceOnUse">
<stop offset="0.1226" stop-color="#A3CD39"/>
<stop offset="0.2846" stop-color="#86C339"/>
<stop offset="0.8693" stop-color="#21A038"/>
</linearGradient>
<linearGradient id="paint3_linear_7763_28736" x1="23.1571" y1="8.65509" x2="33.8411" y2="11.9463" gradientUnits="userSpaceOnUse">
<stop offset="0.0566" stop-color="#0291EB"/>
<stop offset="0.79" stop-color="#0C8ACB"/>
</linearGradient>
<linearGradient id="paint4_linear_7763_28736" x1="11.7105" y1="36.7507" x2="23.1831" y2="41.0303" gradientUnits="userSpaceOnUse">
<stop offset="0.1324" stop-color="#F2E913"/>
<stop offset="0.2977" stop-color="#EBE716"/>
<stop offset="0.5306" stop-color="#D9E01F"/>
<stop offset="0.8023" stop-color="#BBD62D"/>
<stop offset="0.9829" stop-color="#A3CD39"/>
</linearGradient>
<linearGradient id="paint5_linear_7763_28736" x1="9.16264" y1="24.5191" x2="13.7498" y2="12.6053" gradientUnits="userSpaceOnUse">
<stop offset="0.0698" stop-color="#A3CD39"/>
<stop offset="0.2599" stop-color="#81C55F"/>
<stop offset="0.9216" stop-color="#0FA8E0"/>
</linearGradient>
</defs>
</svg>
