<?xml version="1.0" encoding="UTF-8"?>
<!-- Generated by Pixelmator Pro 3.0 -->
<svg width="292" height="76" viewBox="0 0 292 76" xmlns="http://www.w3.org/2000/svg" xmlns:xlink="http://www.w3.org/1999/xlink">
    <path id="path1" fill="#ffffff" stroke="none" d="M 0.845703 26 L 27.6523 26 L 27.6523 8.703117 L 23.6094 8.703117 L 23.6094 22.3965 L 16.279301 22.3965 L 16.279301 8.703117 L 12.2188 8.703117 L 12.2188 22.3965 L 4.88867 22.3965 L 4.88867 8.703117 L 0.845703 8.703117 L 0.845703 26 Z"/>
    <path id="path2" fill="#ffffff" stroke="none" d="M 31.3613 26 L 35.597698 26 L 44.650398 15.417999 C 44.955101 15.0312 45.160198 14.726601 45.265598 14.503899 C 45.382801 14.269501 45.5527 13.970699 45.775398 13.607399 L 45.582001 13.607399 C 45.582001 14.017601 45.587898 14.3633 45.599602 14.644501 C 45.623001 14.9258 45.6348 15.2715 45.6348 15.681599 L 45.6348 26 L 49.783199 26 L 49.783199 8.703117 L 45.546902 8.703117 L 36.494099 19.25 C 36.201199 19.648399 35.996101 19.994102 35.878899 20.287102 C 35.7617 20.568398 35.6152 20.8965 35.439499 21.2715 C 35.474602 20.861298 35.492199 20.486298 35.492199 20.1465 C 35.503899 19.794899 35.5098 19.414101 35.5098 19.003899 L 35.5098 8.703117 L 31.3613 8.703117 L 31.3613 26 Z"/>
    <path id="path3" fill="#ffffff" stroke="none" d="M 53.5625 33.541 L 57.605499 33.541 L 57.605499 23.855499 C 58.273399 24.640602 59.263699 25.255898 60.576199 25.701202 C 61.888699 26.1348 63.306599 26.351601 64.830101 26.351601 C 67.408203 26.351601 69.488297 25.542999 71.070297 23.9258 C 72.664101 22.308601 73.460899 20.193398 73.460899 17.580101 L 73.460899 17.017601 C 73.460899 14.416 72.640602 12.318401 71 10.724602 C 69.359398 9.130859 67.191399 8.333977 64.496101 8.333977 C 62.972698 8.333977 61.548801 8.591797 60.224602 9.107422 C 58.900398 9.623047 57.9688 10.279297 57.429699 11.076202 L 57.341801 8.703117 L 53.5625 8.703117 L 53.5625 33.541 Z M 57.605499 19.8125 L 57.605499 14.855499 C 58.027302 14.070301 58.794899 13.390602 59.908199 12.816399 C 61.033199 12.230499 62.246101 11.9375 63.546902 11.9375 C 65.457001 11.9375 66.892601 12.347702 67.8535 13.167999 C 68.814499 13.976601 69.294899 15.248001 69.294899 16.982399 L 69.294899 17.6152 C 69.294899 19.326202 68.814499 20.6152 67.8535 21.482399 C 66.892601 22.337898 65.451202 22.765602 63.529301 22.765602 C 62.2402 22.765602 61.033199 22.472702 59.908199 21.8867 C 58.783199 21.3008 58.015598 20.609398 57.605499 19.8125 Z"/>
    <path id="path4" fill="#ffffff" stroke="none" d="M 75.359398 17.6152 C 75.359398 20.251999 76.343803 22.3848 78.3125 24.013702 C 80.292999 25.630898 82.806602 26.439499 85.8535 26.439499 C 88.888702 26.439499 91.390602 25.630898 93.359398 24.013702 C 95.339798 22.3848 96.330101 20.251999 96.330101 17.6152 L 96.330101 17.0527 C 96.330101 14.4277 95.339798 12.306599 93.359398 10.689499 C 91.390602 9.060547 88.888702 8.246094 85.8535 8.246094 C 82.806602 8.246094 80.292999 9.060547 78.3125 10.689499 C 76.343803 12.306599 75.359398 14.4277 75.359398 17.0527 L 75.359398 17.6152 Z M 79.507797 17.017601 C 79.507797 15.388699 80.076202 14.123001 81.212898 13.220699 C 82.361298 12.306599 83.902298 11.849602 85.835899 11.849602 C 87.781197 11.849602 89.322304 12.306599 90.459 13.220699 C 91.607399 14.123001 92.181602 15.388699 92.181602 17.017601 L 92.181602 17.650398 C 92.181602 19.279301 91.607399 20.556602 90.459 21.482399 C 89.322304 22.3965 87.781197 22.8535 85.835899 22.8535 C 83.902298 22.8535 82.361298 22.3965 81.212898 21.482399 C 80.076202 20.556602 79.507797 19.279301 79.507797 17.650398 L 79.507797 17.017601 Z"/>
    <path id="path5" fill="#ffffff" stroke="none" d="M 112.255997 26 L 117.160004 26 L 107.737999 16.191399 L 104.837997 18.248001 L 112.255997 26 Z M 101.164001 15.4883 L 101.164001 19.0742 L 106.719002 19.0742 L 116.316002 8.703117 L 111.834 8.703117 L 105.523003 15.4883 L 101.164001 15.4883 Z M 103.185997 8.703117 L 99.142601 8.703117 L 99.142601 26 L 103.185997 26 L 103.185997 8.703117 Z"/>
    <path id="path6" fill="#ffffff" stroke="none" d="M 118.162003 26 L 122.398003 26 L 131.451004 15.417999 C 131.755997 15.0312 131.960999 14.726601 132.065994 14.503899 C 132.184006 14.269501 132.354004 13.970699 132.576004 13.607399 L 132.382996 13.607399 C 132.382996 14.017601 132.389008 14.3633 132.399994 14.644501 C 132.423996 14.9258 132.436005 15.2715 132.436005 15.681599 L 132.436005 26 L 136.584 26 L 136.584 8.703117 L 132.348007 8.703117 L 123.294998 19.25 C 123.001999 19.648399 122.796997 19.994102 122.68 20.287102 C 122.561996 20.568398 122.416 20.8965 122.239998 21.2715 C 122.275002 20.861298 122.292999 20.486298 122.292999 20.1465 C 122.305 19.794899 122.310997 19.414101 122.310997 19.003899 L 122.310997 8.703117 L 118.162003 8.703117 L 118.162003 26 Z"/>
    <path id="path7" fill="#ffffff" stroke="none" d="M 140.274994 26 L 144.511993 26 L 153.563995 15.417999 C 153.869003 15.0312 154.074005 14.726601 154.179993 14.503899 C 154.296997 14.269501 154.466995 13.970699 154.688995 13.607399 L 154.496002 13.607399 C 154.496002 14.017601 154.501999 14.3633 154.514008 14.644501 C 154.537003 14.9258 154.548996 15.2715 154.548996 15.681599 L 154.548996 26 L 158.697006 26 L 158.697006 8.703117 L 154.460999 8.703117 L 145.408005 19.25 C 145.115005 19.648399 144.910004 19.994102 144.792999 20.287102 C 144.675995 20.568398 144.529007 20.8965 144.354004 21.2715 C 144.389008 20.861298 144.406006 20.486298 144.406006 20.1465 C 144.417999 19.794899 144.423996 19.414101 144.423996 19.003899 L 144.423996 8.703117 L 140.274994 8.703117 L 140.274994 26 Z M 149.434006 2.867188 C 148.647995 2.867188 148.061996 2.662109 147.675995 2.251953 C 147.289001 1.830078 146.854996 1.25 146.375 0.511719 L 143.526993 2.269531 C 144.054993 3.476563 144.811005 4.443359 145.794998 5.169922 C 146.791 5.884773 148.003998 6.242188 149.434006 6.242188 C 150.852005 6.242188 152.022995 5.908203 152.949005 5.240227 C 153.886993 4.560547 154.677994 3.570313 155.322006 2.269531 L 152.457001 0.371094 C 151.953003 1.320313 151.514008 1.976563 151.139008 2.339844 C 150.774994 2.691406 150.207001 2.867188 149.434006 2.867188 Z"/>
    <path id="path8" fill="#ffffff" stroke="none" d="M 169.156006 17.6152 C 169.156006 20.392601 170.123001 22.560501 172.057007 24.119102 C 174.001999 25.666 176.475006 26.439499 179.475006 26.439499 C 182.334 26.439499 184.578003 25.794899 186.207001 24.505898 C 187.848007 23.205101 188.667999 21.6465 188.667999 19.830101 L 188.667999 19.460899 L 184.660004 19.460899 L 184.660004 19.8125 C 184.660004 20.7617 184.203003 21.523399 183.289001 22.097702 C 182.386993 22.671898 181.115005 22.959 179.475006 22.959 C 177.610992 22.959 176.117004 22.496101 174.992004 21.570297 C 173.867004 20.632797 173.304993 19.326202 173.304993 17.650398 L 173.304993 17.017601 C 173.304993 15.283199 173.867004 13.970699 174.992004 13.080101 C 176.128998 12.189499 177.628998 11.744102 179.492004 11.744102 C 181.098007 11.744102 182.345993 12.013699 183.235992 12.5527 C 184.139008 13.080101 184.606995 13.8008 184.643005 14.714798 L 184.660004 15.171898 L 188.686005 15.171898 L 188.649994 14.591801 C 188.520996 12.763699 187.677994 11.251999 186.119003 10.056602 C 184.572006 8.849609 182.356995 8.246094 179.475006 8.246094 C 176.475006 8.246094 174.001999 9.019531 172.057007 10.566399 C 170.123001 12.101601 169.156006 14.263699 169.156006 17.0527 L 169.156006 17.6152 Z"/>
    <path id="path9" fill="#ffffff" stroke="none" d="M 191.005997 8.703117 L 191.005997 26 L 195.048996 26 L 195.048996 12.289101 L 205.384995 12.289101 L 205.384995 26 L 209.427994 26 L 209.427994 8.703117 L 191.005997 8.703117 Z"/>
    <path id="path10" fill="#ffffff" stroke="none" d="M 212.311005 17.6152 C 212.311005 20.263702 213.253998 22.402298 215.141006 24.0312 C 217.039001 25.648399 219.576004 26.457001 222.751999 26.457001 C 224.813995 26.457001 226.625 26.1465 228.184006 25.525398 C 229.742004 24.892601 230.854996 24.001999 231.522995 22.8535 L 228.675995 20.726601 C 228.102005 21.359398 227.298996 21.910202 226.268005 22.378899 C 225.248001 22.835899 224.104996 23.064499 222.839996 23.064499 C 220.848007 23.064499 219.218994 22.560501 217.953003 21.5527 C 216.699005 20.544899 216.072006 19.2383 216.072006 17.632797 L 216.072006 16.982399 C 216.072006 15.412102 216.628998 14.111301 217.742004 13.080101 C 218.854996 12.048801 220.326004 11.533203 222.154007 11.533203 C 224.345993 11.533203 225.839996 11.919899 226.636993 12.693401 C 227.445007 13.466801 227.854996 14.480499 227.867004 15.734398 L 227.850006 15.470699 L 214.595993 15.470699 L 214.595993 18.441399 L 231.804993 18.441399 L 231.804993 16.789101 C 231.828003 14.117199 230.973007 12.025398 229.238007 10.513702 C 227.516006 9.001953 225.212997 8.246094 222.330002 8.246094 C 219.459 8.246094 217.067993 9.060547 215.158005 10.689499 C 213.259995 12.306599 212.311005 14.4277 212.311005 17.0527 L 212.311005 17.6152 Z"/>
    <path id="path11" fill="#ffffff" stroke="none" d="M 247.466995 26 L 252.371002 26 L 242.949005 16.191399 L 240.048996 18.248001 L 247.466995 26 Z M 236.375 15.4883 L 236.375 19.0742 L 241.929993 19.0742 L 251.526993 8.703117 L 247.044998 8.703117 L 240.733994 15.4883 L 236.375 15.4883 Z M 238.395996 8.703117 L 234.354004 8.703117 L 234.354004 26 L 238.395996 26 L 238.395996 8.703117 Z"/>
    <path id="path12" fill="#ffffff" stroke="none" d="M 252.054993 12.289101 L 258.804993 12.289101 L 258.804993 26 L 262.847992 26 L 262.847992 12.289101 L 269.597992 12.289101 L 269.597992 8.703117 L 252.054993 8.703117 L 252.054993 12.289101 Z"/>
    <path id="path13" fill="#ffffff" stroke="none" d="M 272.05899 33.541 L 276.10199 33.541 L 276.10199 23.855499 C 276.769989 24.640602 277.76001 25.255898 279.071991 25.701202 C 280.38501 26.1348 281.803009 26.351601 283.325989 26.351601 C 285.903992 26.351601 287.984009 25.542999 289.56601 23.9258 C 291.160004 22.308601 291.957001 20.193398 291.957001 17.580101 L 291.957001 17.017601 C 291.957001 14.416 291.136993 12.318401 289.496002 10.724602 C 287.855011 9.130859 285.687988 8.333977 282.992004 8.333977 C 281.468994 8.333977 280.045013 8.591797 278.721008 9.107422 C 277.395996 9.623047 276.464996 10.279297 275.925995 11.076202 L 275.838013 8.703117 L 272.05899 8.703117 L 272.05899 33.541 Z M 276.10199 19.8125 L 276.10199 14.855499 C 276.52301 14.070301 277.290985 13.390602 278.403992 12.816399 C 279.528992 12.230499 280.742004 11.9375 282.042999 11.9375 C 283.953003 11.9375 285.389008 12.347702 286.350006 13.167999 C 287.311005 13.976601 287.790985 15.248001 287.790985 16.982399 L 287.790985 17.6152 C 287.790985 19.326202 287.311005 20.6152 286.350006 21.482399 C 285.389008 22.337898 283.946991 22.765602 282.024994 22.765602 C 280.735992 22.765602 279.528992 22.472702 278.403992 21.8867 C 277.278992 21.3008 276.511993 20.609398 276.10199 19.8125 Z"/>
    <path id="path14" fill="#ffffff" stroke="none" d="M 0.845703 50.703098 L 0.845703 68 L 4.88867 68 L 4.88867 54.289101 L 15.2246 54.289101 L 15.2246 68 L 19.267599 68 L 19.267599 50.703098 L 0.845703 50.703098 Z"/>
    <path id="path15" fill="#ffffff" stroke="none" d="M 23.0469 75.541 L 27.0898 75.541 L 27.0898 65.855499 C 27.757799 66.640602 28.747999 67.255898 30.060499 67.701202 C 31.372999 68.134804 32.791 68.351601 34.314499 68.351601 C 36.892601 68.351601 38.972698 67.542999 40.554699 65.925797 C 42.148399 64.308601 42.945301 62.193401 42.945301 59.580101 L 42.945301 59.017601 C 42.945301 56.416 42.125 54.318401 40.484402 52.724602 C 38.8438 51.130901 36.6758 50.334 33.980499 50.334 C 32.457001 50.334 31.033199 50.591801 29.709 51.107399 C 28.3848 51.623001 27.4531 52.279301 26.914101 53.076199 L 26.8262 50.703098 L 23.0469 50.703098 L 23.0469 75.541 Z M 27.0898 61.8125 L 27.0898 56.855499 C 27.5117 56.070301 28.279301 55.390598 29.392599 54.816399 C 30.517599 54.230499 31.730499 53.9375 33.0312 53.9375 C 34.941399 53.9375 36.376999 54.347698 37.337898 55.167999 C 38.298801 55.976601 38.779301 57.248001 38.779301 58.982399 L 38.779301 59.6152 C 38.779301 61.326199 38.298801 62.6152 37.337898 63.482399 C 36.376999 64.337898 34.935501 64.765602 33.013699 64.765602 C 31.7246 64.765602 30.517599 64.472702 29.392599 63.8867 C 28.267599 63.3008 27.5 62.609402 27.0898 61.8125 Z"/>
    <path id="path16" fill="#ffffff" stroke="none" d="M 44.8438 59.6152 C 44.8438 62.251999 45.828098 64.384804 47.796902 66.013702 C 49.777302 67.630898 52.291 68.439499 55.337898 68.439499 C 58.373001 68.439499 60.875 67.630898 62.8438 66.013702 C 64.824203 64.384804 65.814499 62.251999 65.814499 59.6152 L 65.814499 59.0527 C 65.814499 56.4277 64.824203 54.306599 62.8438 52.689499 C 60.875 51.060501 58.373001 50.246101 55.337898 50.246101 C 52.291 50.246101 49.777302 51.060501 47.796902 52.689499 C 45.828098 54.306599 44.8438 56.4277 44.8438 59.0527 L 44.8438 59.6152 Z M 48.992199 59.017601 C 48.992199 57.388699 49.560501 56.123001 50.6973 55.220699 C 51.845699 54.306599 53.3867 53.849602 55.320301 53.849602 C 57.265598 53.849602 58.806599 54.306599 59.943401 55.220699 C 61.091801 56.123001 61.666 57.388699 61.666 59.017601 L 61.666 59.650398 C 61.666 61.279301 61.091801 62.556599 59.943401 63.482399 C 58.806599 64.3965 57.265598 64.8535 55.320301 64.8535 C 53.3867 64.8535 51.845699 64.3965 50.6973 63.482399 C 49.560501 62.556599 48.992199 61.279301 48.992199 59.650398 L 48.992199 59.017601 Z"/>
    <path id="path17" fill="#ffffff" stroke="none" d="M 68.626999 50.703098 L 68.626999 68 L 72.669899 68 L 72.669899 54.289101 L 84.078102 54.289101 L 84.078102 50.703098 L 68.626999 50.703098 Z"/>
    <path id="path18" fill="#ffffff" stroke="none" d="M 86.398399 75.541 L 90.441399 75.541 L 90.441399 65.855499 C 91.109398 66.640602 92.099602 67.255898 93.412102 67.701202 C 94.724602 68.134804 96.142601 68.351601 97.666 68.351601 C 100.244003 68.351601 102.323997 67.542999 103.905998 65.925797 C 105.5 64.308601 106.296997 62.193401 106.296997 59.580101 L 106.296997 59.017601 C 106.296997 56.416 105.476997 54.318401 103.835999 52.724602 C 102.195 51.130901 100.027 50.334 97.332001 50.334 C 95.808601 50.334 94.384804 50.591801 93.060501 51.107399 C 91.736298 51.623001 90.804703 52.279301 90.265602 53.076199 L 90.177696 50.703098 L 86.398399 50.703098 L 86.398399 75.541 Z M 90.441399 61.8125 L 90.441399 56.855499 C 90.863297 56.070301 91.630898 55.390598 92.744102 54.816399 C 93.869102 54.230499 95.082001 53.9375 96.382797 53.9375 C 98.292999 53.9375 99.7285 54.347698 100.689003 55.167999 C 101.650002 55.976601 102.130997 57.248001 102.130997 58.982399 L 102.130997 59.6152 C 102.130997 61.326199 101.650002 62.6152 100.689003 63.482399 C 99.7285 64.337898 98.287102 64.765602 96.365196 64.765602 C 95.076202 64.765602 93.869102 64.472702 92.744102 63.8867 C 91.619102 63.3008 90.851601 62.609402 90.441399 61.8125 Z"/>
    <path id="path19" fill="#ffffff" stroke="none" d="M 108.282997 62.9902 C 108.282997 64.712898 109.021004 66.031197 110.498001 66.945297 C 111.986 67.847702 113.732002 68.298798 115.736 68.298798 C 117.494003 68.298798 119.082001 68.029297 120.5 67.490196 C 121.93 66.939499 122.855003 66.318398 123.277 65.626999 C 123.335999 66.037102 123.43 66.470703 123.558998 66.927696 C 123.698997 67.384804 123.857002 67.742203 124.032997 68 L 127.953003 68 L 127.953003 67.718803 C 127.637001 67.273399 127.385002 66.705101 127.196999 66.013702 C 127.010002 65.310501 126.916 64.584 126.916 63.834 L 126.916 56.046902 C 126.916 54.042999 126.148003 52.578098 124.612999 51.652302 C 123.089996 50.714802 121.044998 50.246101 118.478996 50.246101 C 115.876999 50.246101 113.709 50.732399 111.974998 51.705101 C 110.251999 52.666 109.390999 53.914101 109.390999 55.4492 L 109.390999 56.1348 L 113.398003 56.1348 L 113.398003 55.554699 C 113.398003 54.8633 113.825996 54.341801 114.681999 53.9902 C 115.537003 53.638699 116.714996 53.462898 118.214996 53.462898 C 119.808998 53.462898 120.980003 53.685501 121.730003 54.130901 C 122.491997 54.576199 122.873001 55.203098 122.873001 56.0117 L 122.873001 57.1367 L 117.792999 57.1367 C 115.144997 57.1367 112.894997 57.658199 111.042999 58.701199 C 109.203003 59.732399 108.282997 61.162102 108.282997 62.9902 Z M 112.361 62.849602 C 112.361 61.982399 112.894997 61.308601 113.960999 60.828098 C 115.039001 60.335899 116.498001 60.089802 118.337997 60.089802 L 122.873001 60.089802 L 122.873001 61.882801 C 122.873001 62.820301 122.223 63.5938 120.921997 64.203102 C 119.621002 64.800797 118.25 65.099602 116.808998 65.099602 C 115.390999 65.099602 114.294998 64.906197 113.521004 64.519501 C 112.748001 64.132797 112.361 63.576199 112.361 62.849602 Z"/>
    <path id="path20" fill="#ffffff" stroke="none" d="M 130.800995 68 L 134.229004 68 L 134.229004 57.453098 C 134.229004 57.019501 134.229004 56.6562 134.229004 56.3633 C 134.229004 56.058601 134.210999 55.724602 134.175995 55.361301 L 134.264008 55.361301 C 134.322006 55.712898 134.421997 56.046902 134.561996 56.3633 C 134.703003 56.679699 134.891006 57.042999 135.125 57.453098 L 141.154007 68 L 144.423996 68 L 150.453003 57.4883 C 150.688004 57.054699 150.875 56.679699 151.016006 56.3633 C 151.156006 56.035198 151.261993 55.701199 151.332001 55.361301 L 151.401993 55.361301 C 151.367004 55.712898 151.350006 56.058601 151.350006 56.398399 C 151.350006 56.726601 151.350006 57.095699 151.350006 57.505901 L 151.350006 68 L 155.356995 68 L 155.356995 50.703098 L 150.065994 50.703098 L 144.020004 61.0742 C 143.679993 61.695301 143.457001 62.111301 143.352005 62.3223 C 143.246002 62.5215 143.141006 62.826199 143.035004 63.236301 L 142.912003 63.236301 C 142.794998 62.826199 142.695007 62.5215 142.613007 62.3223 C 142.531006 62.123001 142.320007 61.712898 141.979996 61.091801 L 136.057007 50.703098 L 130.800995 50.703098 L 130.800995 68 Z"/>
    <path id="path21" fill="#ffffff" stroke="none" d="M 159.102005 68 L 162.529007 68 L 162.529007 57.453098 C 162.529007 57.019501 162.529007 56.6562 162.529007 56.3633 C 162.529007 56.058601 162.511993 55.724602 162.477005 55.361301 L 162.563995 55.361301 C 162.623001 55.712898 162.723007 56.046902 162.863007 56.3633 C 163.003998 56.679699 163.190994 57.042999 163.425995 57.453098 L 169.455002 68 L 172.725006 68 L 178.753998 57.4883 C 178.988007 57.054699 179.175995 56.679699 179.315994 56.3633 C 179.457001 56.035198 179.561996 55.701199 179.632996 55.361301 L 179.703003 55.361301 C 179.667999 55.712898 179.649994 56.058601 179.649994 56.398399 C 179.649994 56.726601 179.649994 57.095699 179.649994 57.505901 L 179.649994 68 L 183.658005 68 L 183.658005 50.703098 L 178.367004 50.703098 L 172.320007 61.0742 C 171.979996 61.695301 171.757996 62.111301 171.651993 62.3223 C 171.546997 62.5215 171.440994 62.826199 171.335999 63.236301 L 171.212997 63.236301 C 171.095993 62.826199 170.996002 62.5215 170.914001 62.3223 C 170.832001 62.123001 170.621002 61.712898 170.281006 61.091801 L 164.356995 50.703098 L 159.102005 50.703098 L 159.102005 68 Z"/>
    <path id="path22" fill="#ffffff" stroke="none" d="M 187.964996 65.714798 C 187.964996 66.441399 188.182007 67.068398 188.615005 67.595703 C 189.061005 68.111298 189.699005 68.369102 190.531006 68.369102 C 191.352005 68.369102 191.983994 68.111298 192.429993 67.595703 C 192.875 67.068398 193.098007 66.441399 193.098007 65.714798 C 193.098007 64.988297 192.875 64.367203 192.429993 63.851601 C 191.983994 63.335899 191.345993 63.078098 190.514008 63.078098 C 189.692993 63.078098 189.061005 63.335899 188.615005 63.851601 C 188.182007 64.367203 187.964996 64.988297 187.964996 65.714798 Z M 187.964996 52.8125 C 187.964996 53.5508 188.182007 54.1777 188.615005 54.693401 C 189.061005 55.1973 189.699005 55.4492 190.531006 55.4492 C 191.363007 55.4492 191.996002 55.191399 192.429993 54.6758 C 192.875 54.160198 193.098007 53.539101 193.098007 52.8125 C 193.098007 52.085899 192.875 51.464802 192.429993 50.9492 C 191.983994 50.433601 191.345993 50.1758 190.514008 50.1758 C 189.692993 50.1758 189.061005 50.433601 188.615005 50.9492 C 188.182007 51.464802 187.964996 52.085899 187.964996 52.8125 Z"/>
</svg>
