<svg width="48" height="48" viewBox="0 0 48 48" fill="none" xmlns="http://www.w3.org/2000/svg">
<g clip-path="url(#clip0_7763_28751)">
<path d="M24.0001 47.9511C37.2279 47.9511 47.9512 37.2278 47.9512 23.9999C47.9512 10.7721 37.2279 0.0488281 24.0001 0.0488281C10.7722 0.0488281 0.0489502 10.7721 0.0489502 23.9999C0.0489502 37.2278 10.7722 47.9511 24.0001 47.9511Z" fill="#FC3F1D"/>
<path d="M32.6666 39.0355H27.4089V13.0311H25.0666C20.7733 13.0311 18.5244 15.1777 18.5244 18.3822C18.5244 22.0177 20.0755 23.7022 23.2844 25.8488L25.9289 27.6311L18.3289 39.0311H12.6755L19.5155 28.8533C15.5822 26.0444 13.3689 23.3022 13.3689 18.6755C13.3689 12.8933 17.4 8.95996 25.0311 8.95996H32.6311V39.0266H32.6666V39.0355Z" fill="white"/>
</g>
<defs>
<clipPath id="clip0_7763_28751">
<rect width="48" height="48" fill="white"/>
</clipPath>
</defs>
</svg>
