<svg width="178" height="33" viewBox="0 0 178 33" fill="none" xmlns="http://www.w3.org/2000/svg">
<path d="M0 22.3008C0 25.4948 1.1888 28.0729 3.56641 30.0352C5.95833 31.9974 8.99479 32.9785 12.6758 32.9785C16.3711 32.9785 19.4076 31.9974 21.7852 30.0352C24.1771 28.0729 25.373 25.4948 25.373 22.3008V21.6133C25.373 18.4479 24.1771 15.8841 21.7852 13.9219C19.4076 11.9596 16.3711 10.9785 12.6758 10.9785C9.00911 10.9785 5.97982 11.9596 3.58789 13.9219C1.19596 15.8841 0 18.4479 0 21.6133V22.3008ZM4.96289 21.5918C4.96289 19.6009 5.65755 18.0612 7.04688 16.9727C8.45052 15.8698 10.3268 15.3184 12.6758 15.3184C15.0391 15.3184 16.9154 15.8698 18.3047 16.9727C19.7083 18.0612 20.4102 19.6009 20.4102 21.5918V22.3438C20.4102 24.3203 19.7083 25.8672 18.3047 26.9844C16.9154 28.1016 15.0391 28.6602 12.6758 28.6602C10.3268 28.6602 8.45052 28.1016 7.04688 26.9844C5.65755 25.8672 4.96289 24.3203 4.96289 22.3438V21.5918Z" fill="white"/>
<path d="M32.7637 21.8281C32.7637 20.0378 33.4297 18.584 34.7617 17.4668C36.0938 16.3496 38.0417 15.791 40.6055 15.791C43.1979 15.791 45.1458 16.3496 46.4492 17.4668C47.7669 18.584 48.4258 20.0378 48.4258 21.8281V22.4941C48.4258 24.3275 47.7598 25.8171 46.4277 26.9629C45.11 28.0944 43.1621 28.6602 40.584 28.6602C38.0345 28.6602 36.0938 28.0944 34.7617 26.9629C33.4297 25.8171 32.7637 24.3346 32.7637 22.5156V21.8281ZM41.9375 11.4082C39.3737 11.4082 37.2969 11.7878 35.707 12.5469C34.1172 13.2917 33.0286 14.237 32.4414 15.3828H32.2266C32.4271 12.6758 33.1504 10.6061 34.3965 9.17383C35.6569 7.72721 37.526 6.91081 40.0039 6.72461C43.7279 6.39518 46.1341 5.70052 47.2227 4.64062C48.3112 3.56641 48.8555 2.14128 48.8555 0.365234H44.3223C44.3223 0.938151 43.9785 1.41081 43.291 1.7832C42.6178 2.1556 41.1927 2.41341 39.0156 2.55664C35.2917 2.8431 32.4915 4.51888 30.6152 7.58398C28.7389 10.6348 27.8008 14.5163 27.8008 19.2285V20.625C27.8008 25.0365 28.9395 28.2018 31.2168 30.1211C33.5085 32.026 36.6309 32.9785 40.584 32.9785C44.4512 32.9785 47.5449 32.0189 49.8652 30.0996C52.1855 28.166 53.3457 25.638 53.3457 22.5156V21.8281C53.3457 18.7487 52.3145 16.2422 50.252 14.3086C48.1895 12.375 45.418 11.4082 41.9375 11.4082Z" fill="white"/>
<path d="M55.6016 22.3008C55.6016 25.4948 56.7904 28.0729 59.168 30.0352C61.5599 31.9974 64.5964 32.9785 68.2773 32.9785C71.9727 32.9785 75.0091 31.9974 77.3867 30.0352C79.7786 28.0729 80.9746 25.4948 80.9746 22.3008V21.6133C80.9746 18.4479 79.7786 15.8841 77.3867 13.9219C75.0091 11.9596 71.9727 10.9785 68.2773 10.9785C64.6107 10.9785 61.5814 11.9596 59.1895 13.9219C56.7975 15.8841 55.6016 18.4479 55.6016 21.6133V22.3008ZM60.5645 21.5918C60.5645 19.6009 61.2591 18.0612 62.6484 16.9727C64.0521 15.8698 65.9284 15.3184 68.2773 15.3184C70.6406 15.3184 72.5169 15.8698 73.9062 16.9727C75.3099 18.0612 76.0117 19.6009 76.0117 21.5918V22.3438C76.0117 24.3203 75.3099 25.8672 73.9062 26.9844C72.5169 28.1016 70.6406 28.6602 68.2773 28.6602C65.9284 28.6602 64.0521 28.1016 62.6484 26.9844C61.2591 25.8672 60.5645 24.3203 60.5645 22.3438V21.5918Z" fill="white"/>
<path d="M93.4785 32.4414H97.6035V19.6797C97.6035 19.1784 97.6035 18.7415 97.6035 18.3691C97.6035 17.9824 97.582 17.5527 97.5391 17.0801H97.6465C97.7181 17.5384 97.8398 17.9681 98.0117 18.3691C98.1836 18.7702 98.4128 19.207 98.6992 19.6797L106.025 32.4414H109.936L117.262 19.7227C117.548 19.207 117.777 18.7487 117.949 18.3477C118.121 17.9466 118.257 17.5241 118.357 17.0801H118.443C118.386 17.5241 118.357 17.9609 118.357 18.3906C118.372 18.8203 118.379 19.2715 118.379 19.7441V32.4414H123.191V11.5156H116.832L109.484 24.1055C109.083 24.8359 108.811 25.3372 108.668 25.6094C108.539 25.8672 108.41 26.2539 108.281 26.7695H108.131C107.988 26.2539 107.859 25.8672 107.744 25.6094C107.644 25.3516 107.393 24.8574 106.992 24.127L99.7734 11.5156H93.4785V32.4414Z" fill="white"/>
<path d="M127.617 11.5156V32.4414H132.473V24.0625H145.299V32.4414H150.154V11.5156H145.299V19.7441H132.473V11.5156H127.617Z" fill="white"/>
<path d="M153.592 22.3008C153.592 25.5091 154.73 28.0944 157.008 30.0566C159.299 32.0189 162.357 33 166.182 33C168.702 33 170.901 32.6204 172.777 31.8613C174.668 31.1022 176.014 30.028 176.816 28.6387L173.4 26.0605C172.699 26.8483 171.725 27.5215 170.479 28.0801C169.232 28.6387 167.836 28.918 166.289 28.918C163.883 28.918 161.913 28.3092 160.381 27.0918C158.848 25.8743 158.082 24.2845 158.082 22.3223V21.5273C158.082 19.6081 158.762 18.0254 160.123 16.7793C161.484 15.5332 163.274 14.9102 165.494 14.9102C168.173 14.9102 169.999 15.39 170.973 16.3496C171.947 17.3092 172.441 18.5553 172.455 20.0879L172.434 19.7227H156.299V23.2676H177.16V21.291C177.189 18.0684 176.158 15.5475 174.066 13.7285C171.975 11.8952 169.189 10.9785 165.709 10.9785C162.243 10.9785 159.357 11.9596 157.051 13.9219C154.745 15.8841 153.592 18.4479 153.592 21.6133V22.3008Z" fill="white"/>
</svg>
